<svg width="16" height="16" viewBox="0 0 16 16" fill="none" xmlns="http://www.w3.org/2000/svg">
<path d="M7.99997 0C12.411 0 15.9999 3.58857 15.9999 8C15.9999 9.808 15.3959 11.5429 14.2869 12.9371L15.8789 15.056C16.0069 15.2251 16.0359 15.464 15.9539 15.6663C15.8729 15.8697 15.6949 16 15.4999 16H7.99997C3.58899 16 0 12.4114 0 8C0 3.58857 3.58899 0 7.99997 0ZM7.99997 14.8571H14.4109L13.231 13.2857C13.058 13.056 13.072 12.7131 13.262 12.5029C14.3829 11.2663 14.9999 9.66629 14.9999 8C14.9999 4.21829 11.859 1.14286 7.99997 1.14286C4.14099 1.14286 0.999997 4.21829 0.999997 8C0.999997 11.7817 4.14099 14.8571 7.99997 14.8571Z" fill="#383D45"/>
</svg>
