<svg width="16" height="16" viewBox="0 0 16 16" fill="none" xmlns="http://www.w3.org/2000/svg">
<g clip-path="url(#clip0_25_1142)">
<path d="M15.5 9C10.5 17.5 22.5 15.5 8 16C3.58435 16.1523 0 12.4183 0 8C0 3.58172 3.58172 0 8 0C12.4183 0 15.5 6 15.5 9Z" fill="white"/>
<path d="M7.99997 0C12.411 0 15.9999 3.58857 15.9999 8C15.9999 9.808 15.3959 11.5429 14.2869 12.9371L15.8789 15.056C16.0069 15.2251 16.0359 15.464 15.9539 15.6663C15.8729 15.8697 15.6949 16 15.4999 16H7.99997C3.58899 16 0 12.4114 0 8C0 3.58857 3.58899 0 7.99997 0ZM7.99997 14.8571H14.4109L13.231 13.2857C13.058 13.056 13.072 12.7131 13.262 12.5029C14.3829 11.2663 14.9999 9.66629 14.9999 8C14.9999 4.21829 11.859 1.14286 7.99997 1.14286C4.14099 1.14286 0.999997 4.21829 0.999997 8C0.999997 11.7817 4.14099 14.8571 7.99997 14.8571Z" fill="white"/>
<path d="M3.75049 7.9855C3.75049 7.66483 3.82849 7.4395 3.98449 7.3095C4.14049 7.1795 4.32683 7.1145 4.54349 7.1145C4.76016 7.1145 4.95083 7.1795 5.11549 7.3095C5.28016 7.4395 5.36249 7.66483 5.36249 7.9855C5.36249 8.2975 5.28016 8.52283 5.11549 8.6615C4.95083 8.80017 4.76016 8.8695 4.54349 8.8695C4.32683 8.8695 4.14049 8.80017 3.98449 8.6615C3.82849 8.52283 3.75049 8.2975 3.75049 7.9855ZM7.22901 7.9855C7.22901 7.66483 7.30701 7.4395 7.46301 7.3095C7.61901 7.1795 7.80534 7.1145 8.02201 7.1145C8.23868 7.1145 8.42934 7.1795 8.59401 7.3095C8.75868 7.4395 8.84101 7.66483 8.84101 7.9855C8.84101 8.2975 8.75868 8.52283 8.59401 8.6615C8.42934 8.80017 8.23868 8.8695 8.02201 8.8695C7.80534 8.8695 7.61901 8.80017 7.46301 8.6615C7.30701 8.52283 7.22901 8.2975 7.22901 7.9855ZM10.7075 7.9855C10.7075 7.66483 10.7855 7.4395 10.9415 7.3095C11.0975 7.1795 11.2838 7.1145 11.5005 7.1145C11.7172 7.1145 11.9078 7.1795 12.0725 7.3095C12.2372 7.4395 12.3195 7.66483 12.3195 7.9855C12.3195 8.2975 12.2372 8.52283 12.0725 8.6615C11.9078 8.80017 11.7172 8.8695 11.5005 8.8695C11.2838 8.8695 11.0975 8.80017 10.9415 8.6615C10.7855 8.52283 10.7075 8.2975 10.7075 7.9855Z" fill="#489FF8"/>
</g>
<defs>
<clipPath id="clip0_25_1142">
<rect width="16" height="16" fill="white"/>
</clipPath>
</defs>
</svg>
