<svg width="19" height="19" viewBox="0 0 19 19" fill="none" xmlns="http://www.w3.org/2000/svg">
<g clip-path="url(#clip0_25_2720)">
<path d="M9.50006 0.0395508C4.25337 0.0395508 0 4.29293 0 9.53961C0 14.2453 3.42496 18.1423 7.91564 18.897V11.5216H5.62395V8.86747H7.91564V6.91043C7.91564 4.6397 9.30253 3.40229 11.3285 3.40229C12.2988 3.40229 13.1326 3.47459 13.3747 3.50644V5.87995L11.9696 5.88063C10.868 5.88063 10.6556 6.40397 10.6556 7.17221V8.86611H13.284L12.9412 11.5202H10.6556V18.9604C15.356 18.3884 19 14.392 19 9.53689C19 4.29293 14.7466 0.0395508 9.50006 0.0395508Z" fill="white"/>
</g>
<defs>
<clipPath id="clip0_25_2720">
<rect width="19" height="19" fill="white"/>
</clipPath>
</defs>
</svg>
