<svg width="20" height="20" viewBox="0 0 20 20" fill="none" xmlns="http://www.w3.org/2000/svg">
<path d="M1.30459 1.38854C-0.262557 3.01603 0.0581852 4.74487 0.0581852 9.99704C0.0581852 14.3586 -0.702955 18.731 3.28057 19.7603C4.52448 20.0802 15.5461 20.0802 16.7883 19.7587C18.4469 19.3308 19.7963 17.9858 19.9808 15.6405C20.0065 15.3132 20.0065 4.68672 19.98 4.35275C19.7838 1.8546 18.2458 0.41487 16.2191 0.123268C15.7546 0.0559748 15.6616 0.0360361 13.2784 0.0318823C4.82528 0.0360361 2.97229 -0.340305 1.30459 1.38854Z" fill="url(#paint0_linear_25_2729)"/>
<path d="M10.0279 2.63967C7.01076 2.63967 4.14568 2.37133 3.05133 5.17936C2.5993 6.33912 2.66495 7.84532 2.66495 10.002C2.66495 11.8945 2.60429 13.6732 3.05133 14.8238C4.14319 17.6335 7.03153 17.3644 10.0262 17.3644C12.9154 17.3644 15.8943 17.6651 17.002 14.8238C17.4548 13.6524 17.3884 12.1687 17.3884 10.002C17.3884 7.12586 17.5471 5.26908 16.1519 3.87504C14.7393 2.46272 12.829 2.63967 10.0246 2.63967H10.0279ZM9.36814 3.96642C15.6617 3.95645 16.4627 3.25694 16.0206 12.9745C15.8636 16.4114 13.2461 16.0343 10.0287 16.0343C4.1623 16.0343 3.99362 15.8665 3.99362 9.99869C3.99362 4.06279 4.45895 3.96975 9.36814 3.96476V3.96642ZM13.9582 5.18849C13.4705 5.18849 13.075 5.58394 13.075 6.07161C13.075 6.55927 13.4705 6.95472 13.9582 6.95472C14.446 6.95472 14.8415 6.55927 14.8415 6.07161C14.8415 5.58394 14.446 5.18849 13.9582 5.18849ZM10.0279 6.22115C7.93975 6.22115 6.24713 7.91427 6.24713 10.002C6.24713 12.0898 7.93975 13.782 10.0279 13.782C12.1161 13.782 13.8078 12.0898 13.8078 10.002C13.8078 7.91427 12.1161 6.22115 10.0279 6.22115ZM10.0279 7.5479C13.2727 7.5479 13.2769 12.4561 10.0279 12.4561C6.78391 12.4561 6.77893 7.5479 10.0279 7.5479Z" fill="white"/>
<defs>
<linearGradient id="paint0_linear_25_2729" x1="2.38573" y1="17.6143" x2="16.5968" y2="3.40316" gradientUnits="userSpaceOnUse">
<stop stop-color="#FEE411"/>
<stop offset="0.0518459" stop-color="#FEDB16"/>
<stop offset="0.1381" stop-color="#FEC125"/>
<stop offset="0.2481" stop-color="#FE983D"/>
<stop offset="0.3762" stop-color="#FE5F5E"/>
<stop offset="0.5" stop-color="#FE2181"/>
<stop offset="1" stop-color="#9000DC"/>
</linearGradient>
</defs>
</svg>
