<svg width="30" height="37" viewBox="0 0 30 37" fill="none" xmlns="http://www.w3.org/2000/svg">
<path d="M22.9196 10.8794C20.6014 8.56122 17.5123 7.49158 14.4758 7.62291L14.4876 12.3469L8.51807 6.37736L14.4578 0.437665L14.4687 4.80439C18.2198 4.67485 22.0242 6.02416 24.8995 8.89949C30.0631 14.0631 30.3912 22.2118 25.8894 27.7085L23.8797 25.6988C27.2926 21.3109 26.9689 14.9287 22.9196 10.8794ZM5.1005 28.6985C-0.0631512 23.5348 -0.391227 15.3862 4.11056 9.88944L6.1203 11.8992C2.70741 16.2871 3.03106 22.6692 7.0804 26.7186C9.39858 29.0368 12.4877 30.1064 15.5242 29.9751L15.5124 25.2511L21.4819 31.2206L15.5422 37.1603L15.5313 32.7936C11.7802 32.9231 7.97583 31.5738 5.1005 28.6985Z" fill="#489FF8"/>
</svg>
