<svg width="20" height="16" viewBox="0 0 20 16" fill="none" xmlns="http://www.w3.org/2000/svg">
<path d="M20 1.96595C20 0.881937 19.1743 0 18.1595 0H1.84052C0.825863 4.17248e-05 0.000351564 0.881562 0 1.96628V1.96662V14.0334C0 15.131 0.834066 16 1.84114 16H18.1588C19.1863 16 20 15.1091 20 14.0334V1.96662C20 1.96653 20 1.96645 20 1.96636C20 1.96624 20 1.96611 20 1.96595ZM1.84052 1.25179H18.1595C18.5282 1.25179 18.8281 1.57219 18.8281 1.96699C18.8281 2.17678 18.7305 2.37151 18.5668 2.48801L10.3713 8.32431C10.1458 8.48491 9.8543 8.48495 9.62875 8.32431C9.62875 8.32431 1.43301 2.48788 1.43317 2.48801C1.43321 2.48805 1.43305 2.48792 1.43301 2.48788C1.2695 2.37151 1.17188 2.17678 1.17188 1.96595C1.17188 1.57215 1.47184 1.25179 1.84052 1.25179ZM18.1589 14.7483H1.84114C1.47633 14.7483 1.17188 14.4332 1.17188 14.0334V3.80639L8.97867 9.36576C9.2889 9.58669 9.64445 9.69714 10 9.69714C10.3556 9.69714 10.7112 9.58669 11.0214 9.36576L18.8281 3.80639V14.0334C18.8281 14.4231 18.5332 14.7483 18.1589 14.7483Z" fill="black"/>
</svg>
