<svg width="17" height="17" viewBox="0 0 17 17" fill="none" xmlns="http://www.w3.org/2000/svg">
<path d="M7.48644 0C3.35853 0 0 3.35853 0 7.48644C0 11.6146 3.35853 14.9729 7.48644 14.9729C11.6146 14.9729 14.9729 11.6146 14.9729 7.48644C14.9729 3.35853 11.6146 0 7.48644 0ZM7.48644 13.5908C4.12054 13.5908 1.38211 10.8524 1.38211 7.48647C1.38211 4.12057 4.12054 1.38211 7.48644 1.38211C10.8523 1.38211 13.5908 4.12054 13.5908 7.48644C13.5908 10.8523 10.8523 13.5908 7.48644 13.5908Z" fill="#26292D"/>
<path d="M16.7975 15.8204L12.8355 11.8583C12.5655 11.5883 12.1283 11.5883 11.8583 11.8583C11.5883 12.128 11.5883 12.5657 11.8583 12.8355L15.8204 16.7975C15.9553 16.9325 16.132 17 16.3089 17C16.4856 17 16.6625 16.9325 16.7975 16.7975C17.0675 16.5278 17.0675 16.0901 16.7975 15.8204Z" fill="#26292D"/>
</svg>
