<svg width="36" height="39" viewBox="0 0 36 39" fill="none" xmlns="http://www.w3.org/2000/svg">
<path d="M29.4503 14.8698C28.7837 15.0485 28.0932 14.6346 27.9087 13.9458C26.9709 10.4461 24.7712 7.51061 21.7135 5.67666C21.1108 5.31539 20.8996 4.527 21.2408 3.91255C21.5822 3.29833 22.3453 3.09384 22.948 3.45511C26.5882 5.63689 29.2071 9.13294 30.3233 13.2988C30.5079 13.9875 30.1169 14.6912 29.4503 14.8698Z" fill="#26292D"/>
<path d="M5.30206 21.3404C4.63572 21.519 3.945 21.1051 3.76044 20.4163C2.64421 16.2505 3.16445 11.9133 5.22581 8.20385C5.56713 7.58963 6.33031 7.38513 6.93301 7.7464C7.53599 8.10784 7.74724 8.89623 7.4057 9.51051C5.67432 12.6262 5.2376 16.2696 6.17533 19.7693C6.35989 20.4581 5.96863 21.1618 5.30206 21.3404Z" fill="#26292D"/>
<path d="M30.7169 22.5952C28.4639 21.4898 26.7926 19.4397 26.131 16.9706L25.1989 13.4921C24.0225 9.10175 19.8925 6.313 15.6411 6.79962L15.28 5.45198C15.0951 4.76205 14.4047 4.34936 13.7384 4.52791C13.0718 4.70651 12.6802 5.40912 12.8651 6.09905L13.2262 7.44669C9.29997 9.15126 7.11874 13.6311 8.29515 18.0215L9.22719 21.4999C9.88878 23.969 9.46646 26.5802 8.06005 28.6767C7.70159 29.2181 7.5941 29.894 7.76525 30.5328C8.08791 31.737 9.29812 32.4624 10.4634 32.1501L30.3857 26.812C31.5508 26.4998 32.2361 25.2665 31.9135 24.0623C31.7423 23.4235 31.3113 22.8919 30.7169 22.5952Z" fill="#26292D"/>
<path d="M22.0032 34.407C23.9076 33.8968 25.0553 31.8071 24.8316 29.5081L17.1042 31.5786C18.0598 33.6815 20.0986 34.9174 22.0032 34.407Z" fill="#26292D"/>
</svg>
