<svg width="18" height="18" viewBox="0 0 18 18" fill="none" xmlns="http://www.w3.org/2000/svg">
<path fill-rule="evenodd" clip-rule="evenodd" d="M4.93443 0H13.0656C15.7865 0 18 2.21358 18 4.93446V13.0656C18 15.7864 15.7865 18 13.0656 18H4.93443C2.21358 18 0 15.7865 0 13.0656V4.93446C0 2.21358 2.21358 0 4.93443 0ZM4.06297 9C4.06297 11.7223 6.27768 13.9371 9 13.9371C11.7223 13.9371 13.9371 11.7223 13.9371 9C13.9371 6.27771 11.7223 4.06301 9 4.06301C6.27771 4.06301 4.06297 6.27768 4.06297 9ZM14.2509 2.96404C14.2696 2.56653 14.5978 2.25 15 2.25C15.4142 2.25 15.75 2.58579 15.75 3C15.75 3.34256 15.5203 3.63148 15.2066 3.72119C15.141 3.73995 15.0717 3.75 15 3.75C14.6362 3.75 14.3329 3.49101 14.2645 3.14736C14.255 3.09972 14.25 3.05044 14.25 3C14.25 2.98795 14.2503 2.97596 14.2509 2.96404Z" fill="#69737D"/>
</svg>
