<svg width="20" height="20" viewBox="0 0 20 20" fill="none" xmlns="http://www.w3.org/2000/svg">
<path d="M2.85333 19.3746C2.85333 19.8529 3.36833 20.1521 3.785 19.9196L7.19417 18.0005C10.3475 18.8538 13.7367 18.2263 16.3133 16.3038C18.6558 14.5564 20 11.9614 20 9.18481C20 4.11992 15.5142 0 10 0C4.48583 0 0 4.11992 0 9.18481C0 11.6148 1.01083 13.8822 2.85333 15.6005V19.3746ZM1.25 9.18481C1.25 4.80907 5.175 1.24997 10 1.24997C14.825 1.24997 18.75 4.80907 18.75 9.18481C18.75 11.5631 17.5892 13.7931 15.5658 15.3022C13.2333 17.0413 10.1392 17.5755 7.2925 16.7288C7.13 16.6805 6.955 16.7005 6.8075 16.783L4.1025 18.3055V15.323C4.1025 15.1439 4.025 14.9722 3.89083 14.8539C2.1875 13.3556 1.25 11.3423 1.25 9.18481Z" fill="#69737D"/>
<path d="M5.11748 11.7655L8.87149 9.95123L10.6555 11.7227C10.8892 11.9552 11.2143 11.8926 11.386 11.7254L15.4746 7.7194C15.88 7.32164 15.3928 6.67889 14.8783 6.93243L11.1243 8.78428L9.34304 7.02661C9.15292 6.83958 8.82788 6.81916 8.61663 7.02331L4.52804 10.9746C4.11918 11.3697 4.60299 12.0151 5.11748 11.7655ZM8.97438 8.07436L10.6575 9.73456C10.8143 9.88932 11.0568 9.92686 11.2545 9.82874L12.526 9.2018L11.0248 10.6723L9.3444 9.00291C9.18904 8.84816 8.94781 8.80996 8.74951 8.90545L7.47796 9.51988L8.97438 8.07436Z" fill="#69737D"/>
<path d="M6.64047 9.58805C6.41295 9.74454 6.35538 10.0558 6.51187 10.2834C6.66836 10.5109 6.97967 10.5685 7.20719 10.412L6.64047 9.58805ZM8.8469 8.51852L9.19373 8.15836L8.86405 7.84089L8.51874 8.14129L8.8469 8.51852ZM10.77 10.3704L10.4232 10.7305L10.7077 11.0045L11.0401 10.7911L10.77 10.3704ZM13.3478 9.30965C13.5802 9.16047 13.6476 8.85116 13.4984 8.61878C13.3493 8.3864 13.0399 8.31896 12.8076 8.46814L13.3478 9.30965ZM7.20719 10.412C7.74602 10.0413 8.23694 9.66305 8.59233 9.37823C8.77035 9.23557 8.91511 9.11575 9.01575 9.03126C9.06609 8.98901 9.10543 8.95555 9.13243 8.93246C9.14593 8.92091 9.15634 8.91195 9.16351 8.90577C9.16709 8.90268 9.16986 8.90028 9.17179 8.89861C9.17276 8.89777 9.17352 8.89711 9.17407 8.89663C9.17434 8.8964 9.17456 8.8962 9.17473 8.89606C9.17481 8.89598 9.17488 8.89592 9.17494 8.89587C9.17497 8.89585 9.175 8.89582 9.17502 8.89581C9.17505 8.89578 9.17507 8.89576 8.8469 8.51852C8.51874 8.14129 8.51876 8.14127 8.51877 8.14126C8.51877 8.14126 8.51879 8.14125 8.51879 8.14124C8.51879 8.14124 8.51878 8.14125 8.51876 8.14127C8.51872 8.14131 8.51862 8.14139 8.51847 8.14152C8.51817 8.14178 8.51767 8.14222 8.51695 8.14284C8.51552 8.14407 8.51327 8.14603 8.51021 8.14867C8.50409 8.15395 8.49475 8.16198 8.48236 8.17258C8.45758 8.19378 8.42062 8.22522 8.37281 8.26535C8.27716 8.34564 8.13829 8.4606 7.96696 8.5979C7.62366 8.87303 7.15305 9.23548 6.64047 9.58805L7.20719 10.412ZM8.50008 8.87868L10.4232 10.7305L11.1168 10.0102L9.19373 8.15836L8.50008 8.87868ZM11.0401 10.7911L13.3478 9.30965L12.8076 8.46814L10.4999 9.94962L11.0401 10.7911Z" fill="#69737D"/>
</svg>
