<svg width="16" height="16" viewBox="0 0 16 16" fill="none" xmlns="http://www.w3.org/2000/svg">
<path d="M2.81971 13.4416C1.75111 12.373 1.75111 10.6357 2.81971 9.5671L5.31936 7.06745L4.13203 5.88012L1.63238 8.37977C-0.0923824 10.1045 -0.0923824 12.9041 1.63238 14.6289C3.35714 16.3537 6.15675 16.3537 7.88151 14.6289L10.3812 12.1292L9.19383 10.9419L6.69417 13.4416C5.62557 14.5102 3.88831 14.5102 2.81971 13.4416ZM6.00677 11.5043L11.0061 6.50503L9.75625 5.2552L4.75694 10.2545L6.00677 11.5043ZM7.88151 2.13064L5.38186 4.63029L6.56919 5.81762L9.06884 3.31797C10.1374 2.24937 11.8747 2.24937 12.9433 3.31797C14.0119 4.38657 14.0119 6.12383 12.9433 7.19243L10.4437 9.69209L11.631 10.8794L14.1306 8.37977C15.8554 6.65501 15.8554 3.8554 14.1306 2.13064C12.4059 0.405879 9.60627 0.405879 7.88151 2.13064Z" fill="#69737D"/>
</svg>
