<svg width="21" height="20" viewBox="0 0 21 20" fill="none" xmlns="http://www.w3.org/2000/svg">
<path d="M10.5 0C16.2894 0 20.9999 4.48571 20.9999 10C20.9999 12.26 20.2072 14.4286 18.7516 16.1714L20.8411 18.82C21.0091 19.0314 21.0472 19.33 20.9396 19.5829C20.8332 19.8371 20.5996 20 20.3437 20H10.5C4.71055 20 -7.1499e-07 15.5143 -7.1499e-07 10C-7.1499e-07 4.48571 4.71055 0 10.5 0ZM10.5 18.5714H18.9144L17.3656 16.6071C17.1386 16.32 17.1569 15.8914 17.4063 15.6286C18.8776 14.0829 19.6874 12.0829 19.6874 10C19.6874 5.27286 15.5649 1.42857 10.5 1.42857C5.43504 1.42857 1.3125 5.27286 1.3125 10C1.3125 14.7271 5.43504 18.5714 10.5 18.5714Z" fill="#777D88"/>
</svg>
