<svg width="18" height="20" viewBox="0 0 18 20" fill="none" xmlns="http://www.w3.org/2000/svg">
<path d="M17.2969 1.53519H13.8516V0.78125C13.8516 0.349731 13.5368 0 13.1484 0C12.7601 0 12.4453 0.349731 12.4453 0.78125V1.53519H5.55469V0.78125C5.55469 0.349731 5.23993 0 4.85156 0C4.4632 0 4.14844 0.349731 4.14844 0.78125V1.53519H0.703125C0.314758 1.53519 0 1.88492 0 2.31644V19.2188C0 19.6503 0.314758 20 0.703125 20H17.2969C17.6852 20 18 19.6503 18 19.2188V2.31644C18 1.88492 17.6852 1.53519 17.2969 1.53519ZM4.14844 3.09769V3.85147C4.14844 4.28299 4.4632 4.63272 4.85156 4.63272C5.23993 4.63272 5.55469 4.28299 5.55469 3.85147V3.09769H12.4453V3.85147C12.4453 4.28299 12.7601 4.63272 13.1484 4.63272C13.5368 4.63272 13.8516 4.28299 13.8516 3.85147V3.09769H16.5938V6.14578H1.40625V3.09769H4.14844ZM1.40625 18.4375V7.70828H16.5938V18.4375H1.40625ZM5.73047 10C5.73047 10.5394 5.33702 10.9766 4.85156 10.9766C4.3661 10.9766 3.97266 10.5394 3.97266 10C3.97266 9.4606 4.3661 9.02344 4.85156 9.02344C5.33702 9.02344 5.73047 9.4606 5.73047 10ZM9.87891 10C9.87891 10.5394 9.48546 10.9766 9 10.9766C8.51454 10.9766 8.12109 10.5394 8.12109 10C8.12109 9.4606 8.51454 9.02344 9 9.02344C9.48546 9.02344 9.87891 9.4606 9.87891 10ZM9.87891 14.6094C9.87891 15.1488 9.48546 15.5859 9 15.5859C8.51454 15.5859 8.12109 15.1488 8.12109 14.6094C8.12109 14.07 8.51454 13.6328 9 13.6328C9.48546 13.6328 9.87891 14.07 9.87891 14.6094ZM12.2695 10C12.2695 9.4606 12.663 9.02344 13.1484 9.02344C13.6339 9.02344 14.0273 9.4606 14.0273 10C14.0273 10.5394 13.6339 10.9766 13.1484 10.9766C12.663 10.9766 12.2695 10.5394 12.2695 10ZM5.73047 14.6094C5.73047 15.1488 5.33702 15.5859 4.85156 15.5859C4.3661 15.5859 3.97266 15.1488 3.97266 14.6094C3.97266 14.07 4.3661 13.6328 4.85156 13.6328C5.33702 13.6328 5.73047 14.07 5.73047 14.6094Z" fill="#777D88"/>
</svg>
