<svg width="27" height="27" viewBox="0 0 27 27" fill="none" xmlns="http://www.w3.org/2000/svg">
<g clip-path="url(#clip0_16_423)">
<path d="M13.5001 0.0562134C6.04427 0.0562134 0 6.10048 0 13.5563C0 20.2433 4.86704 25.7812 11.2485 26.8536V16.3728H7.99192V12.6011H11.2485V9.82009C11.2485 6.59327 13.2194 4.83484 16.0983 4.83484C17.4772 4.83484 18.6622 4.93759 19.0061 4.98284V8.35573L17.0094 8.3567C15.444 8.3567 15.1422 9.10039 15.1422 10.1921V12.5992H18.8773L18.3902 16.3708H15.1422V26.9438C21.8217 26.1309 27 20.4518 27 13.5524C27 6.10048 20.9557 0.0562134 13.5001 0.0562134Z" fill="black"/>
</g>
<defs>
<clipPath id="clip0_16_423">
<rect width="27" height="27" fill="white"/>
</clipPath>
</defs>
</svg>
