<svg width="27" height="27" viewBox="0 0 27 27" fill="none" xmlns="http://www.w3.org/2000/svg">
<path fill-rule="evenodd" clip-rule="evenodd" d="M27 13.5C27 20.9558 20.9458 27 13.4776 27C7.50387 27 2.43486 23.1328 0.645346 17.7693L4.99301 19.5435C5.38922 21.356 7.02125 22.7222 8.95244 22.7222C11.0519 22.7222 12.7917 21.1195 12.9831 19.0786L18.1962 15.2929C21.1869 15.2929 23.6194 12.8831 23.6194 9.89465L23.6185 9.89377C23.6185 6.91955 21.186 4.5 18.1908 4.5C15.209 4.5 12.7765 6.89644 12.7534 9.8511L9.36735 14.6751C8.42268 14.5898 7.608 14.7844 6.88769 15.2209L0 12.3934C0.563836 5.45517 6.38261 0 13.4776 0C20.9458 0 27 6.04416 27 13.5ZM8.95244 21.6484C7.80655 21.6484 6.82003 21.0075 6.31875 20.0733C6.60487 20.1821 6.89284 20.2974 7.18067 20.4126L7.18075 20.4127C7.38193 20.4932 7.58304 20.5737 7.7834 20.652C9.00052 21.1497 10.3833 20.5569 10.8694 19.3471C11.3609 18.1373 10.7643 16.772 9.54898 16.2875L8.30871 15.7898C8.52329 15.7418 8.73787 15.7186 8.95244 15.7186C10.6076 15.7186 11.9334 17.0369 11.9334 18.6831C11.9334 20.3302 10.6076 21.6484 8.95244 21.6484ZM18.1962 13.5098C16.1831 13.5098 14.5475 11.8964 14.5475 9.89465C14.5475 7.90177 16.1786 6.27955 18.1962 6.27955C20.195 6.27955 21.8306 7.90177 21.8306 9.89465C21.8306 11.9018 20.1941 13.5151 18.1962 13.5098ZM15.2971 9.88754C15.2971 8.28932 16.5988 6.99421 18.2059 6.99421C19.8032 6.99421 21.1147 8.28488 21.1147 9.88754C21.1147 11.4902 19.8032 12.7809 18.2059 12.7809C16.5943 12.7809 15.2971 11.4858 15.2971 9.88754Z" fill="black"/>
</svg>
