<svg width="27" height="27" viewBox="0 0 27 27" fill="none" xmlns="http://www.w3.org/2000/svg">
<path d="M13.5 0C6.0453 0 0 6.0453 0 13.5C0 20.9547 6.0453 27 13.5 27C20.9547 27 27 20.9547 27 13.5C27 6.0453 20.9547 0 13.5 0ZM19.6639 10.5259C19.6699 10.6587 19.6728 10.7922 19.6728 10.9263C19.6728 15.0209 16.5561 19.7424 10.8565 19.7426H10.8567H10.8565C9.10657 19.7426 7.47819 19.2297 6.10689 18.3507C6.34934 18.3794 6.59612 18.3936 6.84599 18.3936C8.29784 18.3936 9.63391 17.8984 10.6946 17.0672C9.3381 17.0421 8.19443 16.1462 7.79974 14.915C7.98864 14.9512 8.18289 14.971 8.38209 14.971C8.66492 14.971 8.93889 14.9329 9.19926 14.8618C7.78141 14.578 6.71333 13.3249 6.71333 11.8244C6.71333 11.8104 6.71333 11.7979 6.71375 11.7849C7.13129 12.0171 7.60879 12.1567 8.11718 12.1724C7.28517 11.6172 6.73826 10.6682 6.73826 9.59312C6.73826 9.02541 6.89172 8.49353 7.15787 8.03561C8.68593 9.91056 10.9696 11.1436 13.5449 11.2732C13.4918 11.0462 13.4644 10.8097 13.4644 10.5667C13.4644 8.85608 14.8521 7.4683 16.5633 7.4683C17.4547 7.4683 18.2597 7.84506 18.8251 8.44739C19.5311 8.30814 20.194 8.05023 20.7928 7.6953C20.5611 8.41855 20.07 9.02541 19.4301 9.40917C20.057 9.33419 20.6544 9.16795 21.2095 8.92117C20.7949 9.54266 20.269 10.0885 19.6639 10.5259Z" fill="black"/>
</svg>
